<svg width="24" height="16" viewBox="0 0 24 16" fill="none" xmlns="http://www.w3.org/2000/svg">
<path fill-rule="evenodd" clip-rule="evenodd" d="M6 0H8V2H6C3.79086 2 2 3.79086 2 6V10C2 12.2091 3.79086 14 6 14H8V16H6C2.68629 16 0 13.3137 0 10V6C0 2.68629 2.68629 0 6 0ZM16 14V16H18C21.3137 16 24 13.3137 24 10V6C24 2.68629 21.3137 0 18 0H16V2H18C20.2091 2 22 3.79086 22 6V10C22 12.2091 20.2091 14 18 14H16ZM8 7C7.44771 7 7 7.44772 7 8C7 8.55228 7.44771 9 8 9H16C16.5523 9 17 8.55228 17 8C17 7.44772 16.5523 7 16 7H8Z" fill="white"/>
</svg>
