<svg width="24" height="24" viewBox="0 0 24 24" fill="none" xmlns="http://www.w3.org/2000/svg">
<path fill-rule="evenodd" clip-rule="evenodd" d="M0 1C0 0.447716 0.447715 0 1 0H23C23.5523 0 24 0.447715 24 1V23C24 23.5523 23.5523 24 23 24H1C0.447716 24 0 23.5523 0 23V1ZM3 6.74742V18.5C3 18.7761 3.22386 19 3.5 19H20.5C20.7761 19 21 18.7761 21 18.5V6.74742L16.0881 12.2051C13.9033 14.6327 10.0967 14.6327 7.91188 12.2051L3 6.74742ZM20.3273 6H3.67268L8.65517 11.5361C10.4428 13.5223 13.5572 13.5223 15.3448 11.5361L20.3273 6Z" fill="white"/>
</svg>
